<svg width="100" height="100" viewBox="0 0 100 100" fill="none" xmlns="http://www.w3.org/2000/svg">
  <defs>
    <!-- Light grain pattern using turbulence filter -->
    <filter id="lightGrainFilter" x="0%" y="0%" width="100%" height="100%">
      <feTurbulence 
        baseFrequency="0.85" 
        numOctaves="3" 
        result="noise" 
        seed="7"
        type="fractalNoise" />
      <feColorMatrix 
        in="noise" 
        type="saturate" 
        values="0" 
        result="desaturatedNoise"/>
      <feComponentTransfer in="desaturatedNoise" result="lightGrain">
        <feFuncA type="discrete" tableValues="0 .2 .2 .4 .4 .6 .6 .8 .8 1"/>
      </feComponentTransfer>
      <feComposite 
        in="lightGrain" 
        in2="SourceGraphic" 
        operator="multiply"/>
    </filter>

    <!-- Pattern for repeated light grain -->
    <pattern id="lightGrainPattern" x="0" y="0" width="100" height="100" patternUnits="userSpaceOnUse">
      <rect width="100" height="100" fill="black" opacity="0.008"/>
      <rect width="100" height="100" fill="black" filter="url(#lightGrainFilter)" opacity="0.3"/>
    </pattern>
  </defs>
  
  <!-- Background -->
  <rect width="100" height="100" fill="url(#lightGrainPattern)"/>
  
  <!-- Additional subtle noise dots for light theme -->
  <g opacity="0.08">
    <circle cx="18" cy="27" r="0.2" fill="black"/>
    <circle cx="41" cy="52" r="0.15" fill="black"/>
    <circle cx="73" cy="15" r="0.25" fill="black"/>
    <circle cx="92" cy="81" r="0.2" fill="black"/>
    <circle cx="29" cy="74" r="0.15" fill="black"/>
    <circle cx="61" cy="93" r="0.2" fill="black"/>
    <circle cx="84" cy="39" r="0.15" fill="black"/>
    <circle cx="16" cy="61" r="0.25" fill="black"/>
    <circle cx="52" cy="28" r="0.15" fill="black"/>
    <circle cx="74" cy="73" r="0.2" fill="black"/>
    <circle cx="95" cy="49" r="0.15" fill="black"/>
    <circle cx="38" cy="16" r="0.2" fill="black"/>
    <circle cx="27" cy="95" r="0.15" fill="black"/>
    <circle cx="63" cy="41" r="0.25" fill="black"/>
    <circle cx="85" cy="84" r="0.2" fill="black"/>
    <circle cx="19" cy="52" r="0.15" fill="black"/>
    <circle cx="46" cy="67" r="0.2" fill="black"/>
    <circle cx="78" cy="22" r="0.15" fill="black"/>
    <circle cx="33" cy="88" r="0.2" fill="black"/>
    <circle cx="69" cy="36" r="0.15" fill="black"/>
  </g>
</svg> 